<?xml version="1.0" encoding="utf-8"?>
<!-- Generator: Adobe Illustrator 22.1.0, SVG Export Plug-In . SVG Version: 6.00 Build 0)  -->
<svg version="1.1" id="Layer_1" xmlns="http://www.w3.org/2000/svg" xmlns:xlink="http://www.w3.org/1999/xlink" x="0px" y="0px"
	 viewBox="0 0 404.1 148.9" style="enable-background:new 0 0 404.1 148.9;" xml:space="preserve">
<style type="text/css">
	.st0{fill:#FFFFFF;}
	.st1{fill:#F0659D;}
	.st2{fill:#FAB383;}
	.st3{fill:#F7942F;}
	.st4{fill:#FDB823;}
	.st5{fill:#C8A68D;}
	.st6{fill:#C32C27;}
	.st7{fill:#E4464A;}
	.st8{fill:none;}
</style>
<g id="Layer_3">
	<path class="st0" d="M196.6,95.5c-0.2-0.2-0.4-0.4-0.5-0.6l-2-7.1c0.2-0.1,0.4-0.1,0.6-0.1c0.2,0,0.4,0.1,0.6,0.2
		c0.2,0.1,0.3,0.3,0.3,0.5l1.3,5.2l-0.2,0.7h0.1l1.7-6.1c0-0.1,0.1-0.2,0.2-0.3c0.1-0.1,0.3-0.1,0.4-0.1c0.2,0,0.3,0,0.4,0.1
		c0.1,0.1,0.2,0.2,0.2,0.3l1.5,5.4l-0.2,0.7h0.1l1.5-6c0-0.2,0.1-0.3,0.3-0.5c0.2-0.1,0.4-0.2,0.6-0.2c0.2,0,0.4,0,0.6,0.1l-2,7.1
		c-0.1,0.3-0.2,0.5-0.5,0.6c-0.3,0.2-0.6,0.2-0.9,0.2l-1.9-6.8H199l0.2,0.6l-1.8,6.2C197.1,95.6,196.9,95.6,196.6,95.5z"/>
	<path class="st0" d="M206,86.1c-0.2-0.2-0.3-0.4-0.3-0.7c0-0.3,0.1-0.5,0.3-0.7c0.2-0.2,0.5-0.3,0.7-0.3c0.3,0,0.5,0.1,0.7,0.3
		c0.2,0.2,0.3,0.4,0.3,0.7c0,0.3-0.1,0.5-0.3,0.7c-0.2,0.2-0.5,0.3-0.7,0.3C206.5,86.4,206.2,86.3,206,86.1z M206,88.6
		c0-0.3,0.1-0.6,0.3-0.8c0.3-0.2,0.6-0.3,1-0.2v7.1c0,0.3-0.1,0.6-0.3,0.8c-0.3,0.2-0.7,0.3-1,0.2V88.6z"/>
	<path class="st0" d="M211.4,95c-0.4-0.5-0.6-1.1-0.5-1.7v-4.6h-1.5c0-0.3,0.1-0.6,0.2-0.8c0.2-0.2,0.4-0.3,0.6-0.3h0.6v-1.5
		c0-0.3,0.1-0.6,0.3-0.8c0.3-0.2,0.7-0.3,1-0.2v2.5h2.1c0,0.7-0.3,1.1-1,1.1h-1.1v4.5c0,0.3,0.1,0.6,0.2,0.9
		c0.2,0.2,0.5,0.3,0.8,0.3c0.4,0,0.7-0.1,1-0.3c0.1,0.1,0.2,0.3,0.2,0.5c0,0.3-0.2,0.5-0.4,0.6c-0.3,0.2-0.7,0.3-1.1,0.3
		C212.4,95.7,211.8,95.5,211.4,95z"/>
	<path class="st0" d="M216.1,85.6c0-0.3,0.1-0.6,0.4-0.9c0.3-0.2,0.6-0.3,1-0.3v4.2c-0.1,0.1-0.2,0.3-0.4,0.4l0.1,0.1
		c0.3-0.4,0.7-0.8,1.2-1.1c0.5-0.3,1-0.4,1.6-0.4c1.4-0.1,2.6,1,2.7,2.4c0,0.1,0,0.2,0,0.3v4.4c0,0.3-0.1,0.6-0.3,0.8
		c-0.3,0.2-0.7,0.3-1,0.2v-5.3c0-0.4-0.1-0.9-0.4-1.2c-0.4-0.3-0.8-0.5-1.3-0.4c-0.4,0-0.7,0.1-1.1,0.2c-0.3,0.1-0.6,0.4-0.8,0.7
		c-0.2,0.3-0.3,0.6-0.3,0.9v4.1c0,0.3-0.1,0.6-0.3,0.8c-0.3,0.2-0.7,0.3-1,0.2L216.1,85.6z"/>
	<path class="st0" d="M357.2,86.2c-4.7,0.8-7.1,4.2-7.1,10.3s3.2,10.2,8.1,10.2c2.3,0,4.3-0.8,8.7-2.9v5c-5.2,2.4-8.3,3.1-12.5,3.1
		c-4.5,0-7.8-1.2-10.4-3.9c-2.7-2.7-4.1-6.4-4-10.1c0-8.8,6.5-14.7,16-14.7c6.3,0,10.6,2.9,10.6,7.1c0,2.7-2,4.6-5,4.6
		c-1.6,0-3.1-0.5-4.4-1.3L357.2,86.2z"/>
	<path class="st0" d="M334.1,97.9c4.2-5.3,5.7-7.4,5.7-10c0-2.6-2.1-4.7-4.7-4.7c0,0-0.1,0-0.1,0c-1.5,0-2.9,0.6-4,1.6v10.8
		l-6.9,9.2V83.9h-6.5l-10.9,18v-18H303l-9.9,2.4v2.5l5.4,0.5v22.1h7l10.4-17.1v17.1h7.6L334.1,97.9z"/>
	<path class="st0" d="M272.4,108c0.7,0,1.1,0,1.5,0c5.6,0,8.6-3.5,8.6-10.2c0-5.7-2.5-8.7-7-8.7c-1.1,0-2.1,0.1-3.1,0.3L272.4,108z
		 M272.4,120.1l4.5,1v2.5h-17.7v-2.5l4-1V89.2h-4.5v-2.6l10.8-3.3h2.8V87c5.1-3,6.8-3.5,9.4-3.5c6,0,10.4,5.5,10.4,13.2
		c0,8.9-5.9,14.8-15.2,14.8c-1.5,0-3.1-0.1-4.6-0.3L272.4,120.1z"/>
	<rect x="351.2" y="47.2" class="st1" width="52.9" height="13.5"/>
	<rect x="351.2" y="18.6" class="st2" width="32.3" height="42.1"/>
	<rect x="351.2" y="13.3" class="st3" width="27" height="47.4"/>
	<rect x="351.2" y="26.9" class="st4" width="46" height="33.9"/>
	<rect x="351.2" y="40.4" class="st5" width="16.9" height="20.3"/>
	<rect x="324.2" y="60.7" class="st6" width="27.1" height="6.8"/>
	<path class="st7" d="M88.4,84.4c-0.7-0.6-1.1-1.4-1.1-2.3c0-0.9,0.2-1.7,0.7-2.5c0.5-0.7,1.2-1.3,2-1.7c0.9-0.4,1.9-0.6,2.9-0.6
		c1.3-0.1,2.6,0.5,3.5,1.6l0.1-0.1L96,78.3l0.2-1c0-0.2,0.1-0.4,0.1-0.6c0-0.5-0.2-1.1-0.6-1.4c-0.6-0.3-1.2-0.5-1.9-0.5
		c-1.6,0-3,0.7-3.9,2c-0.2-0.1-0.4-0.3-0.5-0.5c-0.1-0.2-0.2-0.4-0.2-0.6c0-0.5,0.3-1,0.7-1.3c0.5-0.5,1.2-0.8,1.9-1
		c0.8-0.3,1.6-0.4,2.4-0.4c1.1-0.1,2.2,0.3,3.1,0.9c0.7,0.6,1.2,1.5,1.1,2.5c0,0.3,0,0.6-0.1,0.8L97,83.7c-0.1,0.5-0.3,0.9-0.7,1.2
		c-0.5,0.3-1,0.4-1.6,0.4l0.2-1.1c0.4-0.3,0.6-0.5,0.6-0.6l-0.1-0.1c-1.1,1.2-2.7,1.8-4.3,1.8C90.2,85.4,89.2,85.1,88.4,84.4z
		 M94.5,82.9c0.6-0.5,1-1.2,1-2c0-0.6-0.3-1.1-0.7-1.4c-0.6-0.4-1.3-0.6-2-0.5c-0.9,0-1.7,0.2-2.4,0.8c-0.6,0.5-1,1.3-0.9,2
		c0,0.5,0.2,1.1,0.6,1.4c0.6,0.3,1.2,0.5,1.9,0.5C92.8,83.7,93.8,83.5,94.5,82.9L94.5,82.9z"/>
	<path class="st7" d="M101.1,84.4c-0.8-0.6-1.2-1.5-1.2-2.5c0-0.2,0-0.5,0.1-0.7l0.7-3.8c0.1-0.8,0.5-1.6,1-2.2
		c0.5-0.7,1.2-1.2,2-1.5c0.8-0.4,1.7-0.6,2.6-0.5c1.1,0,2.1,0.2,3,0.8c0.7,0.4,1.2,1.2,1.2,2c0,0.4-0.2,0.9-0.5,1.2
		c-0.4,0.3-0.9,0.5-1.4,0.5c0-0.2,0-0.3,0-0.5c0-0.6-0.2-1.2-0.7-1.5c-0.5-0.4-1.2-0.6-1.9-0.6c-0.8,0-1.6,0.2-2.2,0.7
		c-0.6,0.4-1,1.1-1.1,1.8l-0.6,3.7c0,0.1,0,0.3,0,0.4c0,0.6,0.2,1.1,0.7,1.5c0.5,0.4,1.2,0.6,1.9,0.6c0.8,0,1.6-0.2,2.2-0.7
		c0.6-0.4,1-1.1,1.1-1.8c0.4,0,0.8,0.1,1.1,0.3c0.3,0.2,0.4,0.5,0.4,0.8c0,0.6-0.2,1.2-0.7,1.7c-0.5,0.5-1.2,0.9-1.9,1.2
		c-0.9,0.3-1.8,0.4-2.7,0.4C103.1,85.4,102,85,101.1,84.4z"/>
	<path class="st7" d="M121.9,74.6c-0.2,0.2-0.5,0.4-0.7,0.6l-3.1,2.3l3.5,7.2c-0.3,0.3-0.8,0.5-1.2,0.5c-0.2,0-0.4,0-0.6-0.1
		c-0.2-0.1-0.4-0.3-0.4-0.5l-2.7-5.9l-2,1.6l-0.6,3.5c-0.2,1-0.9,1.5-2.3,1.5l2.7-15.3c0.1-0.5,0.3-1,0.7-1.3
		c0.5-0.3,1.1-0.5,1.6-0.4l-1.8,9.9l6.6-5.1c0.3,0.3,0.4,0.6,0.5,1C122.1,74.3,122.1,74.5,121.9,74.6z"/>
	<path class="st7" d="M125.5,85c-0.6-0.2-1.1-0.5-1.5-0.9c-0.4-0.4-0.6-0.8-0.6-1.3c0-0.4,0.1-0.9,0.4-1.2c0.3-0.3,0.8-0.5,1.2-0.5
		c-0.1,0.7,0.2,1.4,0.8,1.9c0.6,0.5,1.4,0.7,2.2,0.6c0.8,0,1.6-0.1,2.4-0.5c0.5-0.3,0.8-0.9,0.8-1.5c0-0.4-0.2-0.8-0.6-1
		c-0.7-0.4-1.5-0.6-2.2-0.8c-1.1-0.2-2-0.6-2.9-1.2c-0.6-0.5-0.9-1.2-0.9-1.9c0-1.1,0.5-2.1,1.4-2.7c1-0.7,2.3-1.1,3.6-1
		c0.7,0,1.5,0.1,2.2,0.3c0.6,0.2,1.1,0.5,1.5,0.9c0.3,0.3,0.5,0.7,0.6,1.2c0,0.4-0.2,0.8-0.5,1.1c-0.4,0.3-0.9,0.5-1.4,0.5
		c0.1-0.6-0.1-1.2-0.6-1.7c-0.6-0.4-1.3-0.6-2-0.6c-0.7,0-1.4,0.1-2,0.5c-0.5,0.3-0.8,0.8-0.8,1.3c0,0.4,0.2,0.7,0.5,0.9
		c0.6,0.3,1.3,0.5,1.9,0.6c1.1,0.2,2.2,0.6,3.2,1.3c0.6,0.5,1,1.3,1,2.1c0.1,1.1-0.5,2.2-1.4,2.8c-1.2,0.7-2.6,1.1-4.1,1
		C126.9,85.4,126.2,85.2,125.5,85z"/>
	<path class="st7" d="M152.2,80.1h-9.9c-0.3,0-0.6-0.1-0.8-0.2c-0.2-0.2-0.3-0.4-0.3-0.7c0-0.2,0-0.4,0.1-0.6
		c0.1-0.2,0.2-0.4,0.4-0.6l13.7-13.9c0.2-0.2,0.4-0.3,0.6-0.4c0.2-0.1,0.5-0.1,0.7-0.1c0.3,0,0.6,0.1,0.8,0.3
		c0.2,0.2,0.3,0.5,0.3,0.8V65l-2.3,12.6h3.6c-0.1,0.7-0.4,1.4-0.9,1.9c-0.5,0.4-1.1,0.6-1.7,0.6h-1.5l-0.5,3.5
		c-0.2,1.5-1.4,2.2-3.3,2.2L152.2,80.1z M152.8,77.6l1.6-8.9l1.2-1.3l-0.1-0.1l-10.2,10.3H152.8z"/>
	<path class="st8" d="M50.9,142.4c-1.1,0-2,0.9-2,2s0.9,2,2,2s2-0.9,2-2S52,142.4,50.9,142.4z"/>
	<path class="st8" d="M14.9,82.3c0.6,0.4,1.4,0.7,2.1,0.6c0.3,0,0.5,0,0.8,0c-1.3-0.8-2.5-1.7-3.6-2.8c0,0.1,0,0.3,0,0.4
		C14.2,81.2,14.4,81.9,14.9,82.3z"/>
	<path class="st8" d="M47.9,119.7c-1.1,0-2,0.9-2,2s0.9,2,2,2s2-0.9,2-2S49,119.7,47.9,119.7z"/>
	<path class="st7" d="M84.9,53.9c1.1,0,2-0.9,2-2s-0.9-2-2-2s-2,0.9-2,2S83.8,53.9,84.9,53.9z"/>
	<path class="st7" d="M67.1,74.1c0-1.1-0.9-2-2-2s-2,0.9-2,2s0.9,2,2,2S67.1,75.2,67.1,74.1z"/>
	<path class="st7" d="M55.2,69.4c-0.1,0-0.3,0-0.4,0v1h0.4c0.4,0,0.8-0.1,0.8-0.5S55.7,69.4,55.2,69.4z"/>
	<polygon class="st7" points="72.6,37.5 72.6,37.5 72.7,37.5 	"/>
	<path class="st7" d="M81.7,55.1L81.7,55.1L81.7,55.1z"/>
	<polygon class="st7" points="47.2,73.4 47.5,74.7 44.9,79 48.8,79 47.5,73.3 	"/>
	<path class="st7" d="M55.3,67.8c-1.5,0-2.8,1.2-2.8,2.8s1.2,2.8,2.8,2.8s2.8-1.2,2.8-2.8S56.8,67.8,55.3,67.8z M56.1,72.4
		c-0.1-0.3-0.2-0.5-0.3-0.8c-0.1-0.4-0.3-0.5-0.7-0.5h-0.4v1.4h-0.8v-3.4c0.4-0.1,0.9-0.1,1.3-0.1c0.4,0,0.8,0,1.2,0.2
		c0.2,0.2,0.3,0.5,0.3,0.8c0,0.4-0.3,0.7-0.7,0.8l0,0c0.4,0.1,0.6,0.5,0.6,0.8c0,0.3,0.1,0.6,0.3,0.9L56.1,72.4z"/>
	<path class="st7" d="M102.1,18.5c-0.9,2.4-3.5,3.5-5.9,2.6c-2.4-0.9-3.5-3.5-2.6-5.9c0.7-1.8,2.4-2.9,4.3-2.9
		c0.8,0,1.6,0.2,2.4,0.7C98.4,8.5,96.3,4.1,93.9,0c-3.7,7.5-21.9,11.3-32,17.5c0,0-27.1,11.8-12.6,48.9c-8.3-17-15.8-23-25.7-26
		S0,33.9,0,33.9c1.1,13.4,1.8,32.4,11.8,43.9l0.9-5.3c0.1-0.6,0.5-1.2,1-1.5c0.7-0.4,1.4-0.6,2.2-0.5l-1.7,9.5c0,0.1,0,0.2,0,0.3
		c1.1,1,2.3,1.9,3.6,2.8c0.7-0.1,1.3-0.3,1.9-0.8c0.7-0.6,1.2-1.4,1.3-2.3l1.3-7.5c0.1-0.6,0.5-1.2,1-1.5c0.7-0.4,1.4-0.6,2.2-0.5
		l-1.7,9.5c-0.2,1.6-1.1,3.1-2.4,4.1c-0.3,0.2-0.5,0.4-0.8,0.5c5.1,2.3,10.6,3.5,16.1,3.3c15,0,16.9,4.7,13.8,16.2l-3.5,13.1
		c-2.5,0.4-4.1,2.8-3.7,5.3c0.4,2.5,2.8,4.1,5.3,3.7c2.5-0.4,4.1-2.8,3.7-5.3c-0.2-0.9-0.6-1.8-1.3-2.4l4-14.6l0,0l7.1-26.3
		c-2-1.6-2.3-4.5-0.7-6.4c1.6-2,4.5-2.3,6.4-0.7s2.3,4.5,0.7,6.4c-0.6,0.8-1.5,1.3-2.5,1.6l-7,25.8l-9.4,35.6l0,0
		c-2.5,0.6-4,3-3.4,5.5c0.6,2.5,3,4,5.5,3.4c2.5-0.6,4-3,3.4-5.5c-0.2-0.9-0.7-1.8-1.5-2.4l0,0l10.1-37.4c2.1-7.3,5.6-14.1,10.3-20
		l4.5-16.7H64.7l1.2-4.4l6.8-25c-1.9-1.7-2.1-4.5-0.4-6.4c1.7-1.9,4.5-2.1,6.4-0.4c1.9,1.7,2.1,4.5,0.4,6.4
		c-0.6,0.7-1.4,1.2-2.3,1.4v-0.1l-6.5,24h9.4l2-7.3c-0.9-0.8-1.5-2.1-1.5-3.3c0-2.5,2-4.6,4.6-4.6c2.5,0,4.6,2,4.6,4.6
		c0,2.1-1.4,3.9-3.5,4.4l0,0l-1.7,6.3L83,67l-2.8,10.3c1.7-1.4,3.5-2.5,5.4-3.4C94.8,69.6,111.3,49.1,102.1,18.5z M47.9,123.7
		c-1.1,0-2-0.9-2-2s0.9-2,2-2s2,0.9,2,2C49.9,122.8,49,123.7,47.9,123.7C47.9,123.7,47.9,123.7,47.9,123.7L47.9,123.7z M38.5,75.6
		c-0.7,0.4-1.5,0.6-2.3,0.6c0.2-0.5,0.3-0.9,0.3-1.4c0-0.6-0.3-1.2-0.9-1.5c-0.7-0.4-1.5-0.6-2.3-0.6c-1,0-1.9,0.3-2.7,0.9
		c-0.7,0.6-1.2,1.4-1.4,2.3l-0.7,3.9c0,0.2-0.1,0.4-0.1,0.6c0,0.7,0.3,1.4,0.8,1.9c0.7,0.5,1.5,0.7,2.3,0.7c0.9,0,1.9-0.2,2.6-0.7
		c0.7-0.4,1.2-1.1,1.3-1.9l0.1-0.6h-1.8c-0.4,0-0.8-0.1-1.1-0.5c-0.3-0.3-0.4-0.8-0.4-1.2c0-0.2,0-0.4,0-0.6h5.1
		c0.3,0,0.6,0.1,0.8,0.3c0.2,0.2,0.3,0.5,0.3,0.7c0,0.1,0,0.2,0,0.3l-0.3,1.6c-0.2,1-0.6,1.9-1.2,2.6c-0.7,0.8-1.5,1.4-2.5,1.7
		c-1.1,0.4-2.2,0.6-3.4,0.6c-1,0-2.1-0.2-3-0.6c-0.8-0.3-1.5-0.9-2-1.6c-0.5-0.7-0.7-1.6-0.7-2.4c0-0.3,0-0.7,0.1-1l0.7-3.9
		c0.2-1.1,0.6-2.1,1.3-2.9c0.7-0.9,1.5-1.6,2.5-2c1.1-0.5,2.3-0.7,3.5-0.7c1,0,2,0.1,2.9,0.5c0.8,0.3,1.5,0.7,2,1.3
		c0.5,0.6,0.7,1.3,0.7,2C39.4,74.7,39.1,75.3,38.5,75.6z M51.9,84.6c-0.4,0.5-1,0.7-1.6,0.8l-1-4h-5.6l-2.5,4
		c-0.5,0-0.9-0.2-1.3-0.5c-0.3-0.3-0.5-0.7-0.4-1.1c0-0.6,0.2-1.1,0.5-1.6l6.8-10.9c0.2-0.3,0.4-0.5,0.7-0.7
		c0.3-0.2,0.6-0.2,0.9-0.2c0.6,0,1.1,0.4,1.2,0.9l2.9,10.9c0.1,0.3,0.1,0.6,0.1,0.8C52.6,83.6,52.4,84.2,51.9,84.6L51.9,84.6z
		 M55.3,74c-1.9,0-3.4-1.6-3.4-3.5c0-1.9,1.6-3.4,3.5-3.4c1.9,0,3.4,1.6,3.4,3.5C58.8,72.4,57.3,74,55.3,74
		C55.3,74.1,55.3,74.1,55.3,74L55.3,74z M50.9,146.3c-1.1,0-2-0.9-2-2s0.9-2,2-2s2,0.9,2,2C52.9,145.4,52,146.3,50.9,146.3
		C50.9,146.4,50.9,146.4,50.9,146.3L50.9,146.3z"/>
	<path class="st7" d="M77.7,34.1c0-1.1-0.9-2-2-2s-2,0.9-2,2s0.9,2,2,2S77.7,35.2,77.7,34.1z"/>
</g>
</svg>
