<?xml version="1.0" encoding="UTF-8" standalone="no"?>
<svg
   xmlns:dc="http://purl.org/dc/elements/1.1/"
   xmlns:cc="http://creativecommons.org/ns#"
   xmlns:rdf="http://www.w3.org/1999/02/22-rdf-syntax-ns#"
   xmlns:svg="http://www.w3.org/2000/svg"
   xmlns="http://www.w3.org/2000/svg"
   viewBox="0 0 377.94666 286.86667"
   height="286.86667"
   width="377.94666"
   xml:space="preserve"
   id="svg2"
   version="1.1"><metadata
     id="metadata8"><rdf:RDF><cc:Work
         rdf:about=""><dc:format>image/svg+xml</dc:format><dc:type
           rdf:resource="http://purl.org/dc/dcmitype/StillImage" /></cc:Work></rdf:RDF></metadata><defs
     id="defs6" /><g
     transform="matrix(1.3333333,0,0,-1.3333333,0,286.86667)"
     id="g10"><g
       transform="scale(0.1)"
       id="g12"><path
         id="path14"
         style="fill:#f17d14;fill-opacity:1;fill-rule:nonzero;stroke:none"
         d="m 1919.39,730.449 c -91.23,-14.73 -137.87,-82.117 -137.87,-200.711 0,-119.316 62.13,-199.117 157.38,-199.117 44.32,0 84.59,14.731 169.24,56.25 v -96.519 c -101.6,-46.602 -161.41,-61.024 -243.26,-61.024 -88.63,0 -150.98,23.543 -201.9,75.434 -52.18,52.199 -78.28,121.148 -78.28,197.91 0,170.777 126.43,286.328 311.1,286.328 122.65,0 207.01,-56.039 207.01,-138.34 0,-52.988 -39.26,-89.449 -97.52,-89.449 -29.9,0 -54.47,7.828 -85.9,26.078 v 143.16" /><path
         id="path16"
         style="fill:#f17d14;fill-opacity:1;fill-rule:nonzero;stroke:none"
         d="m 1469.19,502.672 c 81.8,103.117 110.69,144.699 110.69,195.328 0,50.41 -40.02,91 -93.48,91 -32.93,0 -62.57,-15.551 -77.04,-31.711 V 547.238 L 1275.33,368.672 V 775.789 H 1147.91 L 936.094,424.621 V 775.789 H 862.871 L 670.586,728.91 V 679.762 L 775.469,669.121 V 238.449 H 911.035 L 1114.2,572.328 V 238.449 h 148.46 l 206.53,264.223" /><path
         id="path18"
         style="fill:#f17d14;fill-opacity:1;fill-rule:nonzero;stroke:none"
         d="M 265.723,69.4297 353.633,49.8789 353.637,0 H 8.76953 V 49.8789 L 87.3633,69.4297 V 671.91 H 0 v 51.668 l 210.977,64.082 h 54.746 v -71.941 c 98.808,58.793 132.754,69.203 183.437,69.203 117.051,0 203.438,-107.953 203.438,-257.422 0,-172.801 -115.274,-289.051 -296.914,-289.051 -20.547,0 -54.727,1.25 -89.961,5.301 z m 0,235.3323 c 14.433,-0.68 20.761,-0.68 29.882,-0.68 109.2,0 167.735,68.078 167.735,198.59 0,110.488 -47.891,169.238 -136.289,169.238 -14.707,0 -30.156,-1.789 -61.328,-5.582 V 304.762" /><path
         id="path20"
         style="fill:#fbd3a7;fill-opacity:1;fill-rule:nonzero;stroke:none"
         d="m 2700.7,1491.57 v -263.93 h 133.94 v 263.93 H 2700.7" /><path
         id="path22"
         style="fill:#fce1c3;fill-opacity:1;fill-rule:nonzero;stroke:none"
         d="m 2700.7,1491.57 v 396.11 h -267.05 v -396.11 h 267.05" /><path
         id="path24"
         style="fill:#f49336;fill-opacity:1;fill-rule:nonzero;stroke:none"
         d="m 1275.64,1227.64 h 527.95 v -131.99 h -527.95 v 131.99" /><path
         id="path26"
         style="fill:#f49336;fill-opacity:1;fill-rule:nonzero;stroke:none"
         d="m 1803.59,1491.57 v -263.93 h 329.26 v 263.93 h -329.26" /><path
         id="path28"
         style="fill:#f59f4a;fill-opacity:1;fill-rule:nonzero;stroke:none"
         d="m 2132.85,1623.84 h -329.26 v -132.27 h 329.26 v 132.27" /><path
         id="path30"
         style="fill:#f6a554;fill-opacity:1;fill-rule:nonzero;stroke:none"
         d="m 2132.85,1491.57 v -263.93 h 197.22 v 263.93 h -197.22" /><path
         id="path32"
         style="fill:#f7b269;fill-opacity:1;fill-rule:nonzero;stroke:none"
         d="m 2132.85,1491.57 h 197.22 v 396.11 h -526.48 v -263.84 h 329.26 v -132.27" /><path
         id="path34"
         style="fill:#f7b269;fill-opacity:1;fill-rule:nonzero;stroke:none"
         d="m 2330.07,1491.57 v -263.93 h 103.58 v 263.93 h -103.58" /><path
         id="path36"
         style="fill:#f8bf81;fill-opacity:1;fill-rule:nonzero;stroke:none"
         d="m 2433.65,1491.57 v -263.93 h 267.05 v 263.93 h -267.05" /><path
         id="path38"
         style="fill:#f9c68d;fill-opacity:1;fill-rule:nonzero;stroke:none"
         d="m 2330.07,2048.39 h -526.48 v -160.71 h 526.48 v 160.71" /><path
         id="path40"
         style="fill:#fbdab5;fill-opacity:1;fill-rule:nonzero;stroke:none"
         d="m 2330.07,2151.49 h -526.48 v -103.1 h 526.48 v 103.1" /><path
         id="path42"
         style="fill:#fde9d1;fill-opacity:1;fill-rule:nonzero;stroke:none"
         d="m 2433.65,1887.68 v 160.71 h -103.58 v -160.71 h 103.58" /><path
         id="path44"
         style="fill:#f9c68d;fill-opacity:1;fill-rule:nonzero;stroke:none"
         d="m 2330.07,1491.57 h 103.58 v 396.11 h -103.58 v -396.11" /></g></g></svg>